<?xml version="1.0" standalone="no"?>
<!DOCTYPE svg PUBLIC "-//W3C//DTD SVG 20010904//EN"
 "http://www.w3.org/TR/2001/REC-SVG-20010904/DTD/svg10.dtd">
<svg version="1.0" xmlns="http://www.w3.org/2000/svg"
 width="2048.000000pt" height="2048.000000pt" viewBox="0 0 2048.000000 2048.000000"
 preserveAspectRatio="xMidYMid meet">

<g transform="translate(0.000000,2048.000000) scale(0.100000,-0.100000)"
fill="#000000" stroke="none">
<path d="M10217 13944 c-4 -4 -7 -18 -7 -31 0 -21 4 -24 28 -21 21 2 27 8 27
28 0 18 -6 26 -20 28 -12 2 -24 0 -28 -4z"/>
<path d="M10230 13541 c0 -33 -7 -142 -16 -243 -22 -247 -22 -468 1 -655 10
-84 21 -153 25 -153 17 0 52 417 45 534 -19 313 -41 576 -47 576 -4 0 -8 -27
-8 -59z"/>
<path d="M9585 12800 c-94 -19 -199 -75 -257 -137 -15 -15 -48 -73 -75 -128
-48 -99 -48 -101 -48 -200 0 -87 3 -107 26 -155 32 -67 87 -123 154 -158 67
-34 185 -42 251 -17 59 23 53 27 -15 9 -105 -27 -229 11 -301 93 -52 60 -80
136 -80 221 0 267 341 391 537 196 65 -65 95 -134 102 -229 4 -72 6 -76 12
-40 10 52 -7 147 -36 205 -29 58 -112 135 -173 162 -29 13 -76 23 -123 26 -90
5 -154 -12 -229 -63 -41 -27 -48 -30 -39 -13 20 38 92 109 136 135 177 103
399 76 543 -67 181 -179 168 -475 -29 -670 -120 -119 -254 -165 -456 -157
-133 5 -207 26 -332 91 -118 62 -201 133 -443 376 -232 233 -330 315 -432 360
-52 23 -130 41 -122 29 3 -5 13 -9 22 -9 28 0 145 -63 208 -112 60 -47 154
-142 392 -395 152 -163 259 -248 387 -308 117 -55 197 -76 320 -84 l100 -7
-78 -8 c-192 -21 -389 32 -598 159 -123 74 -201 133 -384 285 -217 181 -318
254 -420 305 -158 79 -293 97 -391 51 -49 -23 -94 -66 -94 -90 0 -6 10 2 22
18 31 42 111 76 179 76 74 0 145 -22 251 -77 108 -57 189 -118 415 -311 338
-289 537 -408 764 -458 96 -20 281 -21 377 0 409 87 642 527 460 868 -88 166
-310 266 -503 228z"/>
<path d="M10677 12795 c-172 -47 -295 -178 -332 -352 -45 -209 27 -421 194
-576 76 -70 132 -103 235 -139 208 -74 465 -52 702 61 162 77 296 175 587 424
174 150 260 213 357 265 175 94 317 97 408 10 17 -18 32 -27 32 -21 0 20 -78
82 -117 92 -97 27 -224 6 -357 -61 -109 -54 -209 -126 -395 -281 -333 -278
-497 -381 -711 -443 -101 -30 -211 -40 -306 -28 l-69 8 95 7 c298 21 482 134
801 490 86 96 186 202 220 234 81 73 187 143 264 172 54 21 56 23 20 18 -22
-4 -64 -17 -93 -30 -115 -52 -205 -127 -452 -376 -307 -309 -377 -362 -580
-430 -169 -57 -353 -44 -512 37 -69 35 -179 143 -216 212 -143 267 -32 582
233 665 83 26 144 29 223 13 121 -25 234 -101 277 -187 l17 -34 -28 26 c-41
38 -100 65 -170 79 -148 29 -307 -53 -380 -197 -25 -51 -29 -68 -29 -148 0
-49 5 -98 10 -107 7 -12 10 13 10 85 0 117 14 154 88 235 89 96 227 128 352
81 98 -37 153 -100 181 -211 19 -74 7 -157 -32 -225 -32 -56 -105 -118 -161
-137 -59 -20 -163 -21 -210 -1 -54 23 -53 8 1 -16 31 -13 69 -21 111 -21 169
-1 306 113 336 281 16 91 2 165 -51 277 -65 134 -158 213 -295 249 -71 18
-192 18 -258 0z"/>
<path d="M14709 12690 c-297 -142 -593 -261 -1324 -535 -656 -246 -1009 -394
-1313 -552 -830 -429 -1415 -967 -1747 -1606 l-62 -118 -28 63 c-78 175 -256
472 -377 629 -434 560 -1011 996 -1753 1324 -379 168 -687 277 -1330 475 -295
90 -550 175 -726 241 -86 33 -166 59 -178 59 -11 0 -87 -16 -168 -36 -898
-216 -1649 -361 -2118 -410 -93 -10 -176 -22 -182 -27 -7 -5 -13 -20 -13 -33
0 -18 10 -26 58 -44 91 -34 454 -145 607 -185 77 -20 151 -40 165 -44 21 -7 9
-13 -75 -39 -297 -92 -737 -204 -1030 -262 -88 -18 -166 -37 -172 -42 -20 -16
-15 -48 10 -58 47 -20 729 -98 1140 -131 86 -7 157 -16 157 -19 0 -7 -424
-190 -730 -315 -297 -121 -552 -216 -797 -296 -189 -61 -193 -63 -193 -90 0
-18 6 -30 18 -33 32 -10 657 -28 757 -22 93 5 99 4 80 -10 -58 -47 -749 -360
-968 -439 -66 -24 -77 -31 -77 -51 0 -30 25 -54 58 -54 15 0 22 -4 16 -9 -5
-4 -114 -50 -242 -101 -211 -84 -233 -94 -238 -119 -23 -108 -108 -296 -198
-436 -109 -170 -340 -439 -448 -520 -67 -50 -143 -77 -307 -106 -77 -14 -111
-25 -129 -42 -84 -76 -65 -263 34 -345 47 -39 100 -57 224 -76 123 -20 1674
-211 2510 -311 693 -82 1172 -140 1740 -210 333 -41 841 -104 1130 -140 289
-35 638 -76 775 -90 138 -15 365 -41 505 -60 140 -19 440 -57 665 -85 226 -28
419 -53 430 -56 13 -3 32 -30 54 -75 39 -82 122 -173 220 -238 178 -121 509
-227 811 -262 136 -15 457 -15 585 0 309 38 636 146 821 271 105 72 194 179
233 281 11 30 10 30 416 74 397 44 663 75 890 105 121 17 364 46 540 65 176
19 493 58 705 85 212 27 468 59 570 70 102 11 415 50 695 85 281 35 647 80
815 100 168 20 429 52 580 71 151 19 388 48 525 65 138 16 426 52 640 79 215
27 615 77 890 111 532 64 627 80 686 109 49 25 113 99 127 148 27 89 1 191
-59 235 -14 10 -104 39 -200 63 -202 52 -215 60 -336 189 -221 235 -421 553
-499 791 l-26 81 -64 27 c-91 37 -588 258 -594 263 -3 3 72 3 165 2 l170 -4 3
26 c3 25 -5 29 -195 104 -196 78 -591 243 -877 368 l-149 65 94 6 c52 3 148 8
214 11 284 13 829 56 893 71 17 3 22 11 20 27 -2 17 -17 26 -83 45 -334 98
-772 245 -1159 389 -146 55 -174 68 -155 75 13 4 202 32 419 63 592 83 689
102 690 137 0 13 -32 38 -49 38 -31 0 -418 88 -593 135 -222 60 -542 165 -531
175 4 4 58 29 118 55 118 50 422 204 468 237 29 21 35 49 15 65 -7 6 -47 13
-88 17 -220 20 -685 102 -1090 192 -322 72 -1173 297 -1293 343 -21 8 -50 -2
-188 -69z m287 -49 c596 -183 1489 -389 2013 -465 89 -13 165 -26 168 -30 4
-3 -64 -40 -151 -81 -588 -282 -1158 -468 -2166 -706 -1286 -303 -1707 -433
-2258 -693 -345 -164 -619 -325 -855 -503 -470 -356 -691 -577 -965 -968 -167
-238 -292 -462 -412 -737 -35 -81 -66 -146 -67 -144 -18 18 98 329 194 521
276 553 769 1134 1247 1468 135 95 146 109 16 21 -180 -121 -274 -197 -424
-344 -269 -263 -474 -508 -659 -791 -142 -216 -207 -338 -319 -599 l-49 -115
4 60 c9 116 174 504 313 737 90 151 219 339 318 462 142 179 499 524 640 620
21 14 33 26 26 26 -24 0 -225 -166 -364 -301 -166 -160 -358 -382 -473 -547
-176 -250 -284 -451 -424 -782 -32 -78 -45 -99 -47 -81 -6 42 17 138 65 264
132 354 301 652 533 942 109 136 404 440 479 494 24 17 40 31 34 31 -18 0
-165 -130 -288 -254 -332 -337 -598 -739 -760 -1151 -58 -148 -70 -162 -62
-74 10 114 144 457 264 674 201 364 480 691 841 988 19 15 31 27 27 27 -9 0
-77 -55 -201 -162 -196 -169 -383 -384 -553 -638 -121 -180 -196 -319 -283
-525 -102 -240 -100 -236 -93 -140 7 95 48 210 140 400 93 191 169 313 336
545 41 57 16 33 -47 -45 -126 -157 -310 -474 -403 -693 -12 -30 -24 -52 -25
-50 -2 1 0 37 4 78 6 60 18 101 64 204 140 319 317 587 581 881 99 110 102
115 25 35 -270 -280 -425 -500 -591 -837 -44 -90 -83 -163 -86 -163 -3 0 -2
28 1 62 9 76 71 219 175 403 119 210 243 376 425 565 l91 95 -93 -90 c-207
-199 -383 -441 -513 -704 -41 -83 -78 -150 -83 -151 -15 0 4 89 34 158 130
305 409 678 735 982 277 258 668 522 1075 726 319 159 604 279 1205 504 825
310 1119 430 1421 580 54 27 104 48 110 46 6 -2 55 -18 110 -35z m-9100 -60
c26 -25 419 -158 1023 -346 667 -207 998 -334 1386 -530 812 -411 1384 -932
1748 -1590 77 -140 157 -322 163 -374 4 -25 -22 19 -84 144 -171 345 -462 733
-718 958 l-89 79 86 -84 c229 -224 416 -460 574 -725 94 -158 236 -473 241
-533 l4 -45 -14 37 c-8 21 -20 43 -26 50 -6 7 -46 85 -90 173 -43 88 -109 207
-146 265 -84 131 -276 387 -344 460 -47 49 -45 47 13 -25 232 -288 381 -525
492 -780 54 -123 89 -224 100 -285 l6 -35 -18 30 c-11 17 -47 96 -82 177 -90
210 -265 492 -444 716 -87 108 -317 355 -325 348 -2 -3 49 -62 115 -130 185
-192 375 -446 499 -668 119 -211 242 -521 254 -638 4 -41 6 -76 5 -78 -1 -1
-39 91 -84 205 -120 300 -230 499 -406 734 -143 189 -361 424 -525 565 -25 22
27 -33 116 -121 360 -359 596 -697 757 -1090 68 -166 138 -399 143 -480 l5
-70 -75 195 c-174 448 -353 745 -653 1083 -148 167 -418 411 -588 532 -63 45
-29 15 84 -76 466 -372 822 -819 1031 -1293 67 -152 172 -455 190 -552 21
-109 5 -102 -34 16 -125 371 -352 793 -583 1080 -192 239 -598 614 -855 789
-84 56 -52 26 60 -56 307 -229 629 -543 828 -808 244 -324 452 -739 552 -1100
28 -101 49 -206 39 -195 -2 3 -34 93 -70 200 -165 492 -445 942 -837 1344
-490 503 -1043 846 -1810 1124 -462 167 -993 303 -2010 516 -479 100 -809 174
-1165 261 -256 62 -631 166 -661 183 -9 5 60 18 183 36 512 72 1197 211 1893
385 134 34 133 34 146 22z m-1194 -802 c145 -33 380 -84 523 -114 247 -51 354
-74 835 -179 1226 -268 1924 -527 2560 -951 214 -143 346 -251 543 -445 310
-303 489 -530 662 -835 42 -75 18 -45 -81 100 -121 177 -210 283 -388 460
-288 286 -531 470 -907 682 -235 133 -462 238 -749 346 -716 269 -1342 388
-2740 522 -146 14 -402 39 -570 55 -168 16 -429 41 -580 55 -276 25 -532 53
-537 59 -2 2 25 9 59 15 193 37 763 192 958 260 47 16 99 30 117 30 18 1 150
-26 295 -60z m12016 7 c116 -58 483 -175 776 -247 116 -28 147 -39 112 -39 -9
0 -180 -23 -379 -50 -444 -62 -754 -103 -997 -130 -172 -19 -505 -60 -900
-110 -380 -49 -1139 -189 -1515 -280 -358 -86 -728 -202 -1045 -327 -300 -118
-721 -336 -915 -474 -38 -27 -54 -36 -35 -19 51 45 278 198 395 265 114 66
438 229 570 287 426 189 1136 396 2115 618 604 137 1243 325 1640 483 63 25
119 46 123 46 4 1 29 -10 55 -23z m-11953 -491 c77 -7 214 -21 305 -30 952
-92 1409 -159 1870 -275 952 -238 1738 -633 2250 -1129 l105 -102 -85 72
c-366 308 -753 521 -1245 682 -293 96 -470 137 -780 181 -533 75 -1050 80
-2315 21 -673 -31 -1985 -56 -2003 -39 -4 4 71 35 166 69 283 102 911 359
1272 521 l120 54 100 -5 c54 -3 162 -12 240 -20z m12056 -89 c101 -40 232 -92
290 -114 165 -64 595 -211 693 -237 49 -14 91 -26 93 -29 10 -9 -260 -29 -662
-48 -174 -8 -600 -11 -1285 -10 -603 2 -1118 -2 -1250 -8 -598 -28 -1177 -111
-1615 -230 -637 -174 -1202 -466 -1689 -872 l-71 -59 60 56 c79 75 260 220
415 333 344 252 802 475 1345 658 385 130 633 193 1225 313 570 114 907 165
1780 266 124 15 266 32 315 39 155 23 156 23 356 -58z m-147 -556 c38 -26 384
-189 466 -220 19 -7 61 -26 94 -42 32 -16 60 -28 62 -25 2 2 -35 22 -83 45
-49 22 -173 81 -278 130 -104 49 -212 100 -240 115 l-50 26 88 1 87 0 148 -71
c175 -84 454 -207 719 -315 106 -43 191 -80 189 -82 -6 -5 -750 61 -816 73
-14 2 -117 12 -230 20 -113 9 -272 22 -355 30 -221 22 -944 72 -1220 86 -367
17 -1008 15 -1265 -4 -769 -59 -1396 -222 -1955 -511 -388 -200 -684 -418
-1034 -760 -179 -175 -131 -109 74 103 224 230 522 478 775 643 159 104 440
252 655 344 481 205 957 321 1640 399 382 43 809 55 1779 48 l709 -6 41 -27z
m-9994 10 c462 -28 742 -73 1101 -175 423 -121 711 -254 1107 -512 332 -215
658 -547 909 -923 51 -77 119 -195 86 -150 -167 227 -429 506 -633 673 -550
451 -1233 745 -1975 852 -304 43 -424 50 -875 49 -442 -1 -758 -18 -1210 -65
-107 -11 -352 -35 -545 -54 -321 -32 -480 -50 -1060 -120 -110 -13 -274 -31
-365 -40 -145 -14 -410 -45 -523 -60 -25 -4 -36 -2 -32 5 3 5 10 10 15 10 33
0 858 389 900 425 11 9 92 14 295 19 154 3 492 15 750 26 259 10 628 24 820
30 193 6 366 12 385 14 98 8 706 5 850 -4z m235 -281 c332 -26 643 -80 916
-160 491 -142 977 -391 1346 -687 202 -163 442 -413 580 -602 87 -120 303
-488 303 -516 0 -5 -31 46 -70 113 -149 262 -271 425 -460 613 -596 596 -1445
960 -2460 1055 -500 46 -1272 42 -1865 -10 -438 -39 -1434 -149 -1810 -200
-158 -22 -918 -113 -1095 -131 -36 -4 -62 -4 -59 -1 3 4 78 36 166 71 88 36
187 77 219 91 59 26 184 52 286 59 31 2 60 6 65 9 4 3 46 8 93 11 47 3 109 10
139 16 99 19 97 10 -11 -48 -59 -31 -103 -59 -97 -60 5 -2 60 24 121 58 l112
63 260 28 c144 16 335 38 426 49 175 21 406 45 814 85 138 14 313 32 390 40
625 65 1284 86 1691 54z m8240 -39 c398 -18 786 -44 1285 -86 162 -13 354 -29
425 -35 72 -6 139 -16 150 -22 70 -40 336 -169 340 -165 2 2 -68 40 -157 84
-89 43 -154 80 -145 82 9 2 100 -6 202 -17 149 -17 192 -25 215 -41 34 -24
291 -150 305 -149 6 0 -61 36 -149 80 -87 44 -156 82 -154 84 2 2 44 0 94 -5
71 -6 105 -15 153 -39 61 -31 373 -175 523 -242 43 -19 78 -38 78 -43 0 -11
-585 -1 -790 14 -216 16 -906 94 -1230 140 -363 51 -1060 134 -1345 159 -603
55 -1094 55 -1545 1 -347 -42 -850 -174 -1220 -321 -223 -88 -528 -264 -757
-436 -192 -144 -282 -222 -458 -397 -168 -168 -164 -158 13 32 252 272 648
577 980 756 401 216 866 381 1327 470 225 44 638 89 910 99 189 8 755 6 950
-3z m-8555 -200 c628 -24 1087 -98 1530 -247 607 -204 1080 -507 1454 -933
171 -195 326 -424 444 -658 64 -128 74 -154 62 -162 -8 -6 -22 -9 -32 -8 -9 2
-66 77 -126 168 -61 91 -157 221 -215 290 -115 138 -283 316 -268 285 5 -11
24 -33 41 -50 42 -39 211 -240 283 -335 31 -42 97 -141 146 -220 78 -124 88
-146 73 -152 -32 -13 -39 -8 -80 56 -278 429 -588 718 -1108 1031 -385 232
-724 370 -1133 461 -245 54 -560 102 -607 92 -11 -2 15 -8 56 -12 123 -13 364
-54 534 -92 426 -95 796 -246 1200 -492 469 -285 746 -551 1017 -980 42 -67
49 -86 38 -93 -30 -19 -47 -4 -135 114 -192 256 -433 514 -619 663 -126 100
-583 409 -530 357 6 -6 78 -56 160 -111 300 -203 502 -377 706 -610 129 -147
343 -428 335 -441 -3 -5 -15 -11 -26 -14 -17 -4 -43 21 -141 139 -276 330
-596 614 -918 812 -151 94 -307 179 -297 163 4 -6 34 -25 66 -41 167 -85 431
-261 600 -403 187 -156 488 -478 605 -647 28 -41 29 -43 10 -56 -23 -17 -37
-5 -158 135 -107 123 -352 350 -497 461 -106 80 -253 180 -355 240 -74 43 -21
3 116 -88 74 -49 182 -127 240 -172 118 -94 395 -369 513 -509 73 -88 77 -96
60 -108 -10 -7 -21 -13 -25 -13 -4 0 -47 41 -95 91 -341 348 -673 581 -1120
785 -334 153 -589 242 -856 299 -172 37 -177 29 -8 -11 359 -85 712 -217 1074
-401 150 -77 407 -250 558 -377 107 -90 397 -379 406 -405 2 -5 -4 -11 -13
-15 -12 -4 -54 28 -140 108 -476 439 -1055 779 -1605 943 -417 125 -877 192
-1355 198 l-290 3 215 -8 c118 -5 267 -14 330 -20 505 -49 1018 -161 1345
-296 483 -198 818 -413 1272 -817 163 -146 169 -152 148 -160 -9 -4 -48 23
-108 76 -129 115 -176 152 -302 243 -470 340 -1039 595 -1615 723 -486 108
-762 139 -1285 145 -309 4 -312 4 -100 -4 670 -27 1022 -69 1468 -175 315 -75
558 -163 892 -325 272 -132 476 -262 730 -465 123 -98 265 -230 265 -245 0 -5
-9 -14 -20 -20 -16 -9 -27 -3 -71 36 -315 280 -774 550 -1209 711 -106 40
-369 123 -385 122 -5 0 71 -28 170 -63 544 -189 1065 -483 1382 -779 58 -55
63 -62 48 -76 -19 -19 -18 -20 -182 100 -289 212 -658 395 -1065 528 -424 138
-721 189 -1553 267 -446 41 -683 54 -990 52 l-290 -1 260 -8 c782 -24 1693
-118 2175 -224 517 -115 1045 -348 1435 -633 132 -96 168 -132 132 -132 -6 0
-66 39 -132 86 -255 182 -480 298 -845 433 -162 61 -299 105 -306 99 -2 -3 29
-15 69 -27 361 -115 839 -359 1093 -557 91 -71 105 -97 27 -47 -27 17 -95 60
-153 97 -226 143 -604 315 -925 421 -591 196 -1137 278 -2160 326 -263 12
-1335 7 -2080 -11 -510 -13 -1260 -12 -1530 0 -258 12 -583 41 -850 75 -220
29 -248 35 -236 53 6 10 22 9 81 -3 98 -21 425 -51 750 -70 306 -18 1245 -21
1615 -5 481 20 1070 32 1610 34 313 0 507 4 440 8 -198 10 -1124 6 -1685 -9
-568 -15 -1592 -11 -1900 7 -290 17 -728 64 -825 89 l-30 7 29 19 c28 19 32
18 205 -3 447 -55 665 -66 1356 -66 440 -1 696 4 960 17 198 10 369 20 380 22
11 2 -104 0 -255 -3 -723 -18 -1581 -5 -1980 29 -148 12 -561 59 -579 65 -12
4 -10 9 6 26 20 20 25 20 130 9 246 -25 328 -31 587 -41 533 -21 1371 -13
2236 21 1024 39 1705 38 2238 -7 106 -9 195 -14 198 -11 11 11 -497 51 -861
68 -260 12 -983 3 -1675 -21 -992 -35 -1704 -33 -2250 5 -217 15 -511 44 -519
51 -3 3 5 17 16 32 23 30 15 29 173 12 52 -5 293 -15 535 -22 436 -11 815 -6
1780 22 171 6 517 13 770 16 253 4 466 10 473 13 14 8 -46 7 -1218 -11 -952
-15 -1739 -15 -2000 1 -264 16 -440 33 -440 42 0 4 10 20 23 34 l23 27 174
-17 c215 -20 923 -37 1270 -29 140 3 440 12 665 20 226 8 549 19 720 25 170 6
312 13 315 16 5 6 -259 2 -1145 -18 -549 -13 -1307 -7 -1565 11 -249 18 -383
34 -387 45 -2 6 2 18 9 27 11 15 22 16 83 8 129 -17 613 -23 940 -11 321 11
563 26 1360 81 737 51 1434 86 1855 93 80 2 -3 3 -185 3 -382 1 -842 -16
-1280 -46 -77 -6 -295 -19 -485 -30 -190 -11 -421 -24 -515 -29 -656 -38
-1715 -38 -1715 0 0 4 11 20 24 36 24 29 26 29 93 22 141 -15 732 -21 1013
-10 436 17 1073 52 1094 60 19 7 2 7 -334 -10 -358 -17 -1306 -23 -1563 -10
-126 7 -235 15 -242 18 -24 8 25 75 50 68 50 -13 481 -26 670 -21 418 12 1514
82 1343 85 -31 1 -123 -3 -205 -8 -513 -33 -885 -44 -1228 -37 -364 7 -549 16
-566 26 -8 6 -7 16 7 39 17 28 21 30 54 24 57 -12 773 -8 1040 5 262 13 1372
89 1405 97 26 5 -155 -2 -370 -15 -802 -48 -992 -55 -1450 -59 -254 -1 -622
12 -633 24 -3 2 -2 14 1 27 l6 23 343 -3 c565 -6 1035 15 1833 83 226 20 547
47 715 61 168 13 343 29 390 34 81 8 79 9 -35 4 -66 -3 -149 -7 -185 -9 -36
-3 -211 -16 -390 -30 -621 -47 -1037 -75 -1300 -86 -288 -13 -1319 -17 -1338
-5 -8 5 -8 13 -1 30 l11 23 396 6 c505 8 653 17 1257 82 659 71 809 86 1175
120 614 56 1016 85 1380 101 85 4 157 8 159 10 15 13 -614 -14 -964 -41 -318
-25 -921 -75 -1030 -85 -613 -60 -1549 -129 -1825 -135 l-215 -4 120 15 c66 8
289 35 495 59 206 25 461 56 565 69 324 42 1236 144 1525 170 643 59 1076 74
1560 56z m8120 -65 c374 -29 944 -92 1370 -151 264 -36 325 -48 205 -39 -38 3
-160 12 -270 20 -684 50 -1041 65 -1520 66 -461 0 -708 -14 -1090 -62 -893
-111 -1531 -354 -2150 -817 -142 -106 -203 -159 -345 -296 -137 -133 -134
-126 15 38 340 372 851 731 1296 910 497 199 1016 313 1574 346 199 11 673 4
915 -15z m377 -195 c310 -14 680 -37 968 -60 223 -18 637 -45 1090 -71 105 -6
446 -13 760 -15 473 -4 571 -7 577 -19 12 -21 -2 -25 -134 -37 -144 -12 -1053
-4 -1253 11 -129 11 -762 47 -1305 76 -157 8 -310 17 -340 20 -30 2 -127 6
-215 9 l-160 5 205 -14 c113 -8 457 -33 765 -55 812 -58 1106 -78 1320 -91
224 -13 884 -16 1037 -5 107 8 108 8 117 -16 5 -12 6 -26 2 -30 -16 -17 -433
-31 -776 -25 -387 7 -1012 32 -1415 58 -137 8 -274 10 -220 3 35 -5 925 -62
1160 -74 347 -18 803 -30 930 -25 206 8 320 16 335 21 15 6 54 -60 42 -72 -37
-38 -1218 -37 -1742 1 -106 7 -300 14 -285 10 8 -3 114 -12 235 -20 121 -9
279 -20 350 -25 417 -30 1135 -41 1325 -21 145 16 145 16 170 -25 13 -20 19
-39 14 -44 -29 -26 -804 -38 -1349 -20 -154 5 -383 11 -510 14 l-230 5 205
-14 c659 -43 1358 -60 1751 -42 l176 8 18 -27 c13 -21 14 -28 4 -34 -27 -17
-264 -25 -729 -24 -497 1 -871 14 -1650 59 -234 13 -517 29 -630 35 -113 5
-245 12 -295 15 -140 7 -951 18 -945 13 3 -3 118 -8 255 -12 398 -10 573 -16
845 -31 418 -23 1091 -64 1145 -70 117 -13 840 -46 1190 -54 353 -9 651 -4
806 15 56 6 56 6 84 -30 15 -20 26 -39 23 -41 -7 -7 -144 -23 -308 -35 -74 -6
-391 -13 -705 -16 -452 -5 -698 -2 -1190 14 -673 22 -841 24 -810 13 11 -5
127 -11 257 -15 131 -3 306 -11 390 -16 368 -22 956 -33 1514 -27 518 5 682
12 849 32 48 6 51 5 73 -25 13 -17 22 -33 20 -35 -7 -7 -213 -24 -453 -37
-315 -18 -1347 -15 -1950 6 -264 9 -669 15 -900 14 l-420 -1 455 -8 c250 -4
707 -17 1015 -29 883 -35 1982 -30 2230 10 60 10 60 10 89 -22 l29 -32 -25 -7
c-84 -22 -585 -58 -983 -70 -447 -13 -1252 2 -2210 42 -355 15 -1114 15 -1385
0 -258 -14 -583 -40 -590 -48 -3 -3 33 -3 80 1 513 38 1373 41 2085 8 676 -33
1308 -45 1940 -39 561 5 738 13 1004 42 l135 15 28 -27 c15 -14 26 -28 24 -30
-6 -6 -286 -41 -456 -57 -91 -9 -266 -20 -390 -26 -279 -12 -1194 -13 -1510 0
-129 5 -316 11 -415 14 l-180 5 190 -13 c958 -68 1981 -70 2533 -5 264 31 302
33 302 21 0 -14 -70 -28 -300 -57 -414 -52 -563 -59 -1185 -59 -319 -1 -800 5
-1070 12 -836 22 -2097 14 -2160 -14 -5 -2 53 -2 130 1 534 19 1579 12 2170
-15 535 -24 1171 -34 1455 -22 312 13 653 42 854 72 131 20 173 24 164 15 -7
-8 -282 -51 -433 -69 -595 -71 -973 -78 -2355 -45 -549 13 -1860 7 -2125 -10
-901 -58 -1227 -107 -1798 -272 -348 -100 -808 -302 -1130 -495 -70 -42 -130
-74 -133 -71 -8 8 167 140 306 232 529 349 1148 564 1950 679 410 59 687 79
1310 97 223 6 407 14 410 16 8 8 -759 -6 -960 -17 -414 -24 -864 -77 -1145
-136 -456 -96 -778 -200 -1126 -363 -216 -102 -339 -174 -596 -348 -175 -118
-205 -134 -217 -114 -6 10 136 128 289 240 214 156 508 317 762 417 133 52
158 68 47 30 -324 -113 -724 -339 -1043 -590 -91 -71 -96 -73 -118 -59 -13 8
-23 19 -23 23 0 14 146 145 258 233 392 305 826 537 1327 708 94 32 164 58
156 58 -27 2 -400 -129 -539 -188 -439 -188 -746 -377 -1118 -687 -125 -104
-125 -104 -149 -87 l-24 18 42 44 c66 68 320 285 447 381 158 119 211 154 390
255 447 255 927 426 1456 520 297 53 381 62 859 94 l120 8 -91 2 c-50 0 -183
-4 -295 -9 -758 -39 -1453 -239 -2112 -608 -145 -82 -269 -163 -409 -269 -107
-81 -354 -291 -407 -347 -36 -37 -55 -44 -66 -26 -21 34 405 422 670 610 91
64 124 90 95 75 -8 -5 -64 -42 -125 -84 -183 -125 -351 -262 -523 -425 -163
-154 -164 -155 -188 -139 -28 18 -32 10 60 113 269 299 621 612 884 785 39 26
72 50 72 52 0 16 -219 -135 -363 -250 -220 -176 -380 -322 -540 -492 -88 -93
-167 -171 -176 -172 -9 -2 -26 5 -39 15 l-22 17 101 120 c157 185 463 484 644
629 177 141 319 235 533 351 78 42 142 79 142 81 0 6 -172 -81 -265 -134 -361
-206 -728 -511 -1043 -867 -63 -71 -123 -138 -132 -148 -13 -15 -21 -16 -44
-7 l-27 10 33 46 c185 258 527 604 830 841 438 343 1075 606 1793 742 55 11
89 19 76 20 -36 2 -292 -47 -451 -85 -278 -68 -680 -214 -924 -336 -111 -56
-326 -185 -423 -255 -293 -209 -690 -593 -909 -877 -52 -68 -62 -76 -84 -71
-14 4 -27 8 -29 10 -5 5 115 167 208 280 104 126 356 380 481 484 195 162 414
316 598 421 50 29 92 54 92 57 0 17 -309 -168 -470 -281 -161 -113 -379 -297
-490 -414 -19 -21 -73 -78 -121 -129 -84 -89 -200 -228 -287 -346 -38 -51 -46
-57 -70 -51 -15 4 -31 10 -36 14 -30 28 371 507 588 702 191 172 461 367 671
485 136 77 414 205 555 257 348 127 738 216 1160 265 156 18 479 46 630 54
142 8 802 6 1007 -3z m4260 -1196 c-3 -3 -12 -4 -19 -1 -8 3 -5 6 6 6 11 1 17
-2 13 -5z m-18220 -10 c-3 -3 -12 -4 -19 -1 -8 3 -5 6 6 6 11 1 17 -2 13 -5z
m4110 -229 c757 -44 1004 -63 1523 -116 691 -70 1350 -195 1695 -321 110 -40
169 -67 150 -68 -5 0 -86 21 -180 46 -412 110 -798 180 -1435 258 -368 46
-1238 122 -1610 141 -183 10 -740 44 -795 50 -35 3 -44 2 -30 -5 18 -8 356
-36 1110 -90 858 -62 1668 -156 2190 -255 194 -37 465 -102 664 -160 130 -37
386 -134 377 -142 -2 -2 -66 14 -142 37 -397 120 -865 214 -1419 285 -632 81
-1007 121 -1430 154 -143 12 -280 23 -305 26 -25 3 -144 12 -265 20 -121 9
-407 31 -635 50 -499 42 -1186 95 -1225 95 -16 0 -25 3 -22 7 11 11 621 21
999 17 207 -2 535 -14 785 -29z m11478 18 c99 -4 169 -9 155 -10 -14 -2 -212
-17 -440 -33 -926 -67 -1128 -82 -1645 -125 -1381 -116 -2140 -231 -2939 -446
-142 -38 -260 -68 -263 -66 -2 2 23 14 54 26 517 200 1213 347 2183 461 241
28 1064 99 1560 135 218 16 278 23 215 24 -42 1 -723 -37 -885 -49 -1181 -91
-1922 -198 -2574 -370 -126 -33 -231 -59 -233 -56 -10 10 345 126 522 170 218
55 687 144 946 180 273 38 796 90 1324 131 185 14 648 33 950 39 216 4 859 -3
1070 -11z m-13840 -29 c180 -16 841 -92 1130 -129 105 -14 330 -43 500 -65
171 -22 423 -53 560 -69 138 -16 428 -52 645 -80 217 -27 562 -70 765 -96 204
-25 435 -55 515 -65 80 -11 325 -43 545 -70 518 -66 688 -88 1410 -190 77 -11
143 -20 148 -20 9 0 9 -12 -2 -28 -8 -13 -104 -2 -761 88 -118 16 -444 59
-725 95 -280 36 -631 81 -780 100 -148 20 -360 46 -470 60 -110 13 -434 53
-720 89 -286 36 -810 102 -1165 145 -1932 240 -1966 244 -1977 255 -8 7 204
-3 382 -20z m14960 -10 c-49 -7 -148 -20 -220 -29 -240 -29 -1336 -165 -1765
-220 -234 -30 -776 -97 -1205 -150 -429 -53 -964 -120 -1190 -150 -225 -30
-527 -68 -670 -85 -143 -17 -305 -37 -360 -45 -55 -8 -172 -23 -260 -34 -208
-26 -700 -89 -746 -97 -30 -4 -37 -2 -41 14 -7 24 -20 21 292 62 129 17 420
55 645 85 911 121 2405 310 3000 380 121 14 324 39 450 55 127 17 318 41 425
55 225 29 971 118 1170 140 166 19 367 32 480 32 l85 1 -90 -14z m-7461 -375
c16 -14 -7 -72 -30 -75 -41 -6 -78 11 -85 40 -13 49 -3 58 55 51 28 -4 55 -11
60 -16z m-186 -26 c-3 -36 -5 -38 -47 -47 -38 -8 -46 -7 -57 9 -17 24 -18 62
-1 68 6 3 34 6 60 6 l48 1 -3 -37z m-165 -15 c6 -44 1 -55 -35 -67 -52 -18
-77 -14 -84 14 -9 37 -2 47 52 66 65 23 61 24 67 -13z m504 7 c30 -13 32 -15
23 -47 -6 -18 -10 -35 -10 -37 0 -2 -16 -1 -36 2 -73 12 -105 55 -68 92 17 16
29 15 91 -10z m146 -61 c29 -15 53 -28 55 -29 6 -5 -32 -75 -41 -75 -21 0 -97
51 -97 65 0 15 21 65 27 65 2 0 27 -12 56 -26z m-819 0 c16 -41 6 -62 -37 -83
-53 -26 -64 -26 -77 -2 -21 40 -12 58 38 79 58 25 68 26 76 6z m-160 -86 c3
-13 6 -29 6 -35 0 -15 -77 -73 -97 -73 -11 0 -43 55 -43 74 0 9 94 55 111 56
9 0 19 -10 23 -22z m1152 -3 l42 -25 -15 -40 c-9 -22 -19 -40 -23 -40 -3 0
-27 14 -54 30 -48 31 -54 50 -24 88 15 17 26 15 74 -13z m153 -89 l40 -25 -16
-41 c-14 -34 -20 -39 -37 -34 -28 9 -76 45 -77 58 -5 42 15 80 37 72 7 -3 31
-16 53 -30z m-1463 -1 c21 -32 14 -48 -37 -82 -40 -27 -42 -27 -56 -8 -37 50
-36 53 14 85 27 16 51 30 55 30 4 0 15 -11 24 -25z m-141 -104 c13 -27 12 -30
-13 -53 -15 -14 -37 -31 -49 -37 -21 -10 -25 -8 -43 21 -11 18 -20 36 -20 40
0 10 94 66 103 61 4 -2 14 -17 22 -32z m1743 13 c41 -24 44 -28 38 -57 -10
-50 -21 -54 -72 -27 -54 28 -61 40 -44 80 15 37 21 37 78 4z m142 -79 c32 -17
41 -54 18 -72 -29 -22 -48 -22 -75 1 -25 22 -26 25 -14 55 15 35 29 38 71 16z
m-2040 -14 c24 -47 2 -81 -53 -81 -57 0 -61 55 -7 82 44 22 47 22 60 -1z m28
-260 c191 -111 382 -175 647 -217 155 -25 480 -26 627 -1 251 42 429 102 619
208 50 27 93 48 96 45 9 -8 -48 -52 -127 -99 -461 -272 -1239 -288 -1746 -36
-86 43 -216 137 -191 139 5 0 39 -17 75 -39z"/>
<path d="M11595 10480 c-3 -5 -1 -10 4 -10 6 0 11 5 11 10 0 6 -2 10 -4 10 -3
0 -8 -4 -11 -10z"/>
<path d="M11115 10459 c-11 -17 1 -21 15 -4 8 9 8 15 2 15 -6 0 -14 -5 -17
-11z"/>
<path d="M9295 10940 c10 -11 20 -20 23 -20 3 0 -3 9 -13 20 -10 11 -20 20
-23 20 -3 0 3 -9 13 -20z"/>
<path d="M9300 10816 c0 -2 7 -6 15 -10 8 -3 15 -1 15 4 0 6 -7 10 -15 10 -8
0 -15 -2 -15 -4z"/>
<path d="M8610 10757 c0 -2 19 -17 43 -32 23 -16 37 -22 30 -14 -12 15 -73 53
-73 46z"/>
<path d="M9120 10726 c0 -2 8 -10 18 -17 15 -13 16 -12 3 4 -13 16 -21 21 -21
13z"/>
<path d="M9315 10690 c3 -5 11 -10 16 -10 6 0 7 5 4 10 -3 6 -11 10 -16 10 -6
0 -7 -4 -4 -10z"/>
<path d="M9535 10600 c10 -11 20 -20 23 -20 3 0 -3 9 -13 20 -10 11 -20 20
-23 20 -3 0 3 -9 13 -20z"/>
<path d="M4395 11694 c-66 -24 -178 -66 -248 -91 -71 -26 -125 -49 -120 -50 9
-3 463 160 491 177 33 19 -5 8 -123 -36z"/>
<path d="M4452 11618 c-134 -44 -242 -82 -240 -84 9 -9 471 139 493 158 15 14
0 9 -253 -74z"/>
<path d="M4623 11587 c-123 -39 -221 -72 -219 -74 7 -7 466 133 466 142 0 10
-31 2 -247 -68z"/>
<path d="M3986 11612 c-44 -14 -76 -27 -70 -29 5 -1 47 11 94 26 47 16 78 29
70 29 -8 1 -51 -11 -94 -26z"/>
<path d="M4822 11549 c-118 -39 -212 -73 -209 -75 6 -6 418 125 432 138 16 15
-6 8 -223 -63z"/>
<path d="M5758 11463 c7 -3 16 -2 19 1 4 3 -2 6 -13 5 -11 0 -14 -3 -6 -6z"/>
<path d="M5801 11456 c2 -2 117 -25 254 -51 319 -60 701 -149 1165 -271 14 -4
23 -4 20 -1 -16 17 -632 179 -905 237 -105 22 -498 90 -524 90 -8 0 -12 -2
-10 -4z"/>
<path d="M5990 11320 c190 -32 448 -82 574 -109 236 -53 303 -63 181 -30 -276
76 -604 140 -940 184 -220 28 -163 14 185 -45z"/>
<path d="M6828 11153 c7 -3 16 -2 19 1 4 3 -2 6 -13 5 -11 0 -14 -3 -6 -6z"/>
<path d="M16555 11693 c13 -14 297 -123 460 -178 12 -4 9 0 -6 9 -21 12 -176
72 -444 172 -14 5 -17 4 -10 -3z"/>
<path d="M16725 11690 c6 -10 343 -122 354 -118 4 2 -75 30 -176 64 -100 34
-180 58 -178 54z"/>
<path d="M16422 11645 c4 -4 299 -114 373 -139 11 -4 0 4 -25 17 -25 14 -109
48 -188 76 -131 47 -173 59 -160 46z"/>
<path d="M16340 11590 c33 -19 313 -121 323 -117 6 2 -64 31 -156 65 -162 60
-199 72 -167 52z"/>
<path d="M15850 11384 c-212 -35 -428 -73 -480 -84 -52 -10 -128 -24 -168 -31
-40 -6 -71 -13 -69 -15 7 -8 1124 180 1134 190 11 11 -26 5 -417 -60z"/>
<path d="M4465 11268 c-388 -163 -855 -366 -855 -374 0 -5 36 10 290 114 385
158 630 266 630 277 0 8 -12 5 -65 -17z"/>
<path d="M4505 11181 c-302 -122 -664 -282 -585 -258 33 10 327 130 530 216
270 115 258 110 240 110 -8 0 -91 -30 -185 -68z"/>
<path d="M4640 11131 c-232 -95 -458 -195 -474 -211 -12 -12 62 18 204 80 52
23 183 78 290 122 107 44 197 82 199 84 19 18 -34 0 -219 -75z"/>
<path d="M6335 11005 c536 -65 899 -135 1215 -234 52 -17 96 -28 98 -26 8 8
-286 97 -462 140 -285 70 -598 117 -861 129 l-110 5 120 -14z"/>
<path d="M6205 10899 c367 -19 888 -92 1179 -165 54 -14 100 -23 103 -21 6 6
-201 62 -337 91 -276 60 -710 107 -955 104 l-140 -1 150 -8z"/>
<path d="M7515 10700 c11 -5 27 -9 35 -9 9 0 8 4 -5 9 -11 5 -27 9 -35 9 -9 0
-8 -4 5 -9z"/>
<path d="M16565 11228 c11 -8 49 -27 85 -41 250 -98 318 -124 419 -158 63 -22
111 -35 105 -30 -5 5 -47 23 -94 39 -47 17 -177 66 -290 110 -113 43 -214 83
-225 87 l-20 7 20 -14z"/>
<path d="M16364 11201 c7 -11 156 -74 162 -68 4 4 -30 20 -134 64 -19 8 -31
10 -28 4z"/>
<path d="M16196 11171 c9 -9 300 -121 312 -121 16 1 -37 24 -170 75 -150 58
-158 60 -142 46z"/>
<path d="M16660 11106 c52 -19 178 -68 279 -110 102 -41 186 -74 188 -72 13
13 -449 196 -527 210 -19 3 8 -9 60 -28z"/>
<path d="M16030 11127 c18 -19 498 -213 506 -204 3 2 -17 12 -43 22 -27 10
-131 53 -233 96 -179 74 -241 98 -230 86z"/>
<path d="M16536 11092 c12 -11 292 -128 324 -136 34 -9 -61 36 -204 95 -120
50 -138 56 -120 41z"/>
<path d="M15360 11048 c-102 -4 -216 -12 -255 -17 l-70 -8 70 -2 c108 -2 465
22 465 31 0 4 -6 7 -12 6 -7 0 -96 -5 -198 -10z"/>
<path d="M15000 10933 c-166 -7 -449 -26 -580 -39 -270 -27 -670 -101 -795
-148 -58 -21 -39 -19 77 9 171 42 560 103 788 124 223 21 492 36 860 50 l215
8 -250 0 c-137 -1 -279 -2 -315 -4z"/>
<path d="M16476 10660 c16 -16 436 -211 447 -207 5 1 -64 38 -154 81 -181 88
-310 143 -293 126z"/>
<path d="M16330 10645 c0 -10 410 -206 428 -205 12 1 -146 80 -290 146 -76 35
-138 61 -138 59z"/>
<path d="M14710 10590 c-561 -12 -808 -35 -1178 -112 -107 -22 -137 -37 -35
-19 116 22 378 61 502 76 254 29 1187 48 1656 33 131 -4 182 -3 135 2 -111 13
-505 30 -633 28 -62 -1 -263 -4 -447 -8z"/>
<path d="M15295 10519 c11 -4 90 -7 175 -7 85 0 148 2 140 4 -34 7 -333 10
-315 3z"/>
<path d="M14213 10513 c15 -2 39 -2 55 0 15 2 2 4 -28 4 -30 0 -43 -2 -27 -4z"/>
<path d="M14103 10503 c9 -2 25 -2 35 0 9 3 1 5 -18 5 -19 0 -27 -2 -17 -5z"/>
<path d="M15698 10503 c23 -2 59 -2 80 0 20 2 1 4 -43 4 -44 0 -61 -2 -37 -4z"/>
<path d="M15920 10490 c8 -5 24 -9 35 -9 l20 0 -20 9 c-11 5 -27 9 -35 9 -13
1 -13 0 0 -9z"/>
<path d="M13398 10443 c7 -3 16 -2 19 1 4 3 -2 6 -13 5 -11 0 -14 -3 -6 -6z"/>
<path d="M16997 10419 c7 -7 15 -10 18 -7 3 3 -2 9 -12 12 -14 6 -15 5 -6 -5z"/>
<path d="M5740 10589 c-266 -15 -1028 -89 -1065 -103 -23 -10 48 -4 390 29
551 52 702 61 1273 69 128 2 235 6 239 10 9 9 -660 5 -837 -5z"/>
<path d="M3410 10413 c-323 -164 -400 -208 -210 -121 183 83 483 237 505 259
11 10 17 19 15 18 -3 0 -142 -70 -310 -156z"/>
<path d="M7060 10534 c8 -2 110 -20 225 -40 630 -109 1158 -302 1593 -582 12
-8 22 -12 22 -8 0 3 -33 27 -72 54 -408 273 -1002 484 -1591 562 -130 17 -223
25 -177 14z"/>
<path d="M3647 10436 c-180 -92 -259 -136 -245 -136 19 0 438 216 438 226 0 9
-18 1 -193 -90z"/>
<path d="M3835 10449 c-151 -82 -213 -119 -202 -119 7 0 345 177 356 186 2 2
-2 4 -10 4 -8 -1 -72 -33 -144 -71z"/>
<path d="M4608 10473 c12 -2 30 -2 40 0 9 3 -1 5 -23 4 -22 0 -30 -2 -17 -4z"/>
<path d="M2995 10039 c-49 -28 -97 -57 -105 -66 -15 -16 146 68 191 99 47 33
3 16 -86 -33z"/>
<path d="M2785 10011 c-66 -33 -116 -60 -111 -60 11 -1 204 87 231 105 40 28
-3 12 -120 -45z"/>
<path d="M16042 10235 c3 -3 148 -25 324 -50 175 -25 328 -48 339 -51 13 -4
17 -3 10 3 -17 17 -266 59 -520 88 -142 16 -161 18 -153 10z"/>
<path d="M16775 10183 c16 -15 176 -84 186 -81 6 2 -31 21 -82 43 -111 48
-117 51 -104 38z"/>
<path d="M17260 10159 c22 -14 198 -104 243 -122 78 -33 32 -4 -103 63 -129
64 -178 85 -140 59z"/>
<path d="M7463 9973 c9 -2 23 -2 30 0 6 3 -1 5 -18 5 -16 0 -22 -2 -12 -5z"/>
<path d="M7655 9935 c393 -86 740 -216 1064 -397 293 -164 562 -372 739 -573
43 -48 50 -53 36 -26 -9 19 -62 80 -118 135 -342 344 -854 636 -1383 790 -128
37 -438 107 -470 105 -10 0 50 -16 132 -34z"/>
<path d="M5413 9923 c9 -2 23 -2 30 0 6 3 -1 5 -18 5 -16 0 -22 -2 -12 -5z"/>
<path d="M5239 9916 c-2 -2 -51 -6 -109 -10 -128 -8 -360 -29 -620 -56 -107
-11 -292 -29 -410 -40 -118 -11 -219 -22 -225 -24 -34 -14 114 -1 820 68 198
20 430 42 515 50 97 8 132 14 94 15 -33 0 -63 -1 -65 -3z"/>
<path d="M6418 9913 c6 -2 18 -2 25 0 6 3 1 5 -13 5 -14 0 -19 -2 -12 -5z"/>
<path d="M6483 9913 c9 -2 25 -2 35 0 9 3 1 5 -18 5 -19 0 -27 -2 -17 -5z"/>
<path d="M6551 9916 c8 -8 98 -10 105 -3 4 4 -19 7 -51 7 -32 0 -56 -2 -54 -4z"/>
<path d="M6725 9904 c507 -36 726 -68 1050 -151 366 -93 796 -275 1080 -456
126 -79 138 -85 98 -50 -93 82 -476 289 -688 372 -437 170 -948 273 -1410 284
-99 3 -157 3 -130 1z"/>
<path d="M5330 9802 c0 -4 19 -6 43 -4 70 5 76 10 15 11 -32 0 -58 -2 -58 -7z"/>
<path d="M6523 9763 c9 -2 23 -2 30 0 6 3 -1 5 -18 5 -16 0 -22 -2 -12 -5z"/>
<path d="M6993 9763 c9 -2 23 -2 30 0 6 3 -1 5 -18 5 -16 0 -22 -2 -12 -5z"/>
<path d="M5825 9644 c-377 -15 -749 -35 -755 -42 -3 -2 69 -1 160 3 536 25
1411 28 1660 6 300 -27 551 -66 774 -122 65 -16 123 -28 130 -26 13 5 -335 90
-454 111 -106 19 -297 42 -460 57 -118 10 -881 19 -1055 13z"/>
<path d="M4463 9623 c15 -2 39 -2 55 0 15 2 2 4 -28 4 -30 0 -43 -2 -27 -4z"/>
<path d="M4993 9593 c15 -2 37 -2 50 0 12 2 0 4 -28 4 -27 0 -38 -2 -22 -4z"/>
<path d="M4733 9573 c9 -2 23 -2 30 0 6 3 -1 5 -18 5 -16 0 -22 -2 -12 -5z"/>
<path d="M6395 9503 c334 -10 690 -46 1000 -103 397 -73 706 -178 1080 -365
83 -41 139 -66 125 -55 -36 29 -345 181 -475 233 -293 119 -615 199 -1013 252
-250 33 -432 45 -637 43 -93 -1 -129 -3 -80 -5z"/>
<path d="M4003 9473 c9 -2 25 -2 35 0 9 3 1 5 -18 5 -19 0 -27 -2 -17 -5z"/>
<path d="M8085 9360 c-7 -11 38 -24 57 -18 7 3 -2 10 -20 16 -18 6 -34 7 -37
2z"/>
<path d="M4028 9343 c12 -2 32 -2 45 0 12 2 2 4 -23 4 -25 0 -35 -2 -22 -4z"/>
<path d="M5780 9250 c-131 -4 -53 -7 310 -12 440 -7 676 -16 800 -34 25 -3 42
-3 39 0 -31 32 -705 59 -1149 46z"/>
<path d="M5525 9240 l-60 -7 68 -1 c43 -1 66 2 62 8 -3 6 -7 9 -8 8 -1 -1 -29
-4 -62 -8z"/>
<path d="M7358 9163 c6 -2 18 -2 25 0 6 3 1 5 -13 5 -14 0 -19 -2 -12 -5z"/>
<path d="M9355 8980 c3 -5 8 -10 11 -10 2 0 4 5 4 10 0 6 -5 10 -11 10 -5 0
-7 -4 -4 -10z"/>
<path d="M8360 8971 c0 -13 26 -32 33 -24 8 7 -11 33 -24 33 -5 0 -9 -4 -9 -9z"/>
<path d="M7518 8753 c7 -3 16 -2 19 1 4 3 -2 6 -13 5 -11 0 -14 -3 -6 -6z"/>
<path d="M7558 8743 c7 -3 16 -2 19 1 4 3 -2 6 -13 5 -11 0 -14 -3 -6 -6z"/>
<path d="M5893 8623 c15 -2 37 -2 50 0 12 2 0 4 -28 4 -27 0 -38 -2 -22 -4z"/>
<path d="M7918 8363 c7 -3 16 -2 19 1 4 3 -2 6 -13 5 -11 0 -14 -3 -6 -6z"/>
<path d="M13875 10039 c-274 -17 -587 -54 -800 -95 -290 -56 -644 -160 -797
-234 -35 -17 -54 -27 -43 -23 427 146 638 203 940 252 345 57 677 86 1125 97
146 4 267 8 269 10 8 7 -562 1 -694 -7z"/>
<path d="M15008 9803 c7 -3 16 -2 19 1 4 3 -2 6 -13 5 -11 0 -14 -3 -6 -6z"/>
<path d="M13670 9736 c-58 -5 -94 -12 -80 -13 14 -2 84 3 155 11 72 7 108 13
80 13 -27 0 -97 -5 -155 -11z"/>
<path d="M13513 9713 c9 -2 25 -2 35 0 9 3 1 5 -18 5 -19 0 -27 -2 -17 -5z"/>
<path d="M13443 9703 c9 -2 25 -2 35 0 9 3 1 5 -18 5 -19 0 -27 -2 -17 -5z"/>
<path d="M15888 9643 c12 -2 30 -2 40 0 9 3 -1 5 -23 4 -22 0 -30 -2 -17 -4z"/>
<path d="M14375 9633 c-454 -8 -823 -45 -1215 -123 -165 -33 -490 -124 -478
-135 1 -2 71 16 153 40 335 96 732 157 1220 186 241 15 887 15 1150 0 309 -17
401 -21 390 -16 -20 9 -462 35 -692 40 -131 3 -276 7 -323 8 -47 1 -139 1
-205 0z"/>
<path d="M15998 9633 c18 -2 45 -2 60 0 15 2 0 4 -33 4 -33 0 -45 -2 -27 -4z"/>
<path d="M15668 9573 c12 -2 30 -2 40 0 9 3 -1 5 -23 4 -22 0 -30 -2 -17 -4z"/>
<path d="M15800 9566 c0 -2 9 -6 20 -9 11 -3 20 -1 20 4 0 5 -9 9 -20 9 -11 0
-20 -2 -20 -4z"/>
<path d="M14790 9520 c0 -5 14 -10 30 -10 17 0 30 5 30 10 0 6 -13 10 -30 10
-16 0 -30 -4 -30 -10z"/>
<path d="M13945 9450 c-19 -8 -19 -9 3 -9 12 -1 22 4 22 9 0 6 -1 10 -2 9 -2
0 -12 -4 -23 -9z"/>
<path d="M13600 9424 c-369 -42 -788 -138 -1085 -249 -169 -63 -516 -237 -502
-251 3 -3 27 8 53 25 96 58 392 185 569 243 320 105 611 169 1010 222 190 25
155 33 -45 10z"/>
<path d="M16433 9353 c26 -2 67 -2 90 0 23 2 2 3 -48 3 -49 0 -68 -1 -42 -3z"/>
<path d="M14438 9333 c7 -3 16 -2 19 1 4 3 -2 6 -13 5 -11 0 -14 -3 -6 -6z"/>
<path d="M12480 9310 c-9 -6 -10 -10 -3 -10 6 0 15 5 18 10 8 12 4 12 -15 0z"/>
<path d="M13985 9238 c-201 -14 -500 -55 -685 -92 -96 -20 -179 -36 -184 -36
-5 0 -7 -2 -4 -5 3 -3 90 10 194 30 397 75 688 98 1249 99 248 1 401 4 340 7
-176 9 -779 7 -910 -3z"/>
<path d="M15718 9093 c12 -2 32 -2 45 0 12 2 2 4 -23 4 -25 0 -35 -2 -22 -4z"/>
<path d="M14020 9045 c-249 -18 -639 -70 -626 -82 2 -3 69 5 148 16 246 35
512 57 838 70 l195 8 -190 0 c-104 0 -269 -5 -365 -12z"/>
<path d="M12878 8813 c7 -3 16 -2 19 1 4 3 -2 6 -13 5 -11 0 -14 -3 -6 -6z"/>
<path d="M13763 8813 c9 -2 23 -2 30 0 6 3 -1 5 -18 5 -16 0 -22 -2 -12 -5z"/>
<path d="M13358 8783 c6 -2 18 -2 25 0 6 3 1 5 -13 5 -14 0 -19 -2 -12 -5z"/>
<path d="M11915 8770 c-8 -13 4 -32 16 -25 12 8 12 35 0 35 -6 0 -13 -4 -16
-10z"/>
<path d="M13265 8770 c-27 -7 -27 -8 -5 -8 14 0 39 4 55 8 27 7 27 8 5 8 -14
0 -38 -4 -55 -8z"/>
<path d="M13175 8753 c-215 -50 -356 -87 -361 -95 -5 -8 1 -9 17 -4 13 4 110
29 214 56 105 27 181 49 170 48 -11 0 -29 -2 -40 -5z"/>
<path d="M4488 8433 c12 -2 30 -2 40 0 9 3 -1 5 -23 4 -22 0 -30 -2 -17 -4z"/>
<path d="M15698 8433 c6 -2 18 -2 25 0 6 3 1 5 -13 5 -14 0 -19 -2 -12 -5z"/>
<path d="M11626 12374 c-9 -8 -16 -22 -16 -29 0 -7 7 -21 16 -29 8 -9 22 -16
29 -16 17 0 45 27 45 44 0 15 -32 46 -48 46 -6 0 -18 -7 -26 -16z"/>
<path d="M8797 12373 c-11 -11 -8 -48 5 -61 32 -32 87 18 58 53 -13 15 -51 20
-63 8z"/>
<path d="M9856 12163 c-6 -14 -5 -15 5 -6 7 7 10 15 7 18 -3 3 -9 -2 -12 -12z"/>
<path d="M10230 12118 c0 -25 -99 -217 -150 -293 -134 -198 -333 -342 -547
-394 -69 -17 -73 -20 -37 -20 22 -1 76 8 120 19 150 39 273 110 386 226 89 92
138 159 194 267 l47 90 27 -61 c73 -159 229 -338 373 -427 88 -54 214 -101
305 -113 69 -10 87 2 20 12 -170 27 -410 192 -548 375 -52 68 -139 228 -160
294 -11 35 -30 51 -30 25z"/>
<path d="M10175 11708 c-107 -150 -227 -258 -380 -341 -38 -21 -59 -35 -45
-31 37 10 158 72 210 107 71 49 186 164 231 233 23 35 45 64 50 64 5 0 15 -13
23 -29 8 -15 40 -59 70 -96 91 -110 170 -172 313 -244 102 -51 133 -54 37 -3
-155 83 -277 192 -384 346 -30 42 -57 76 -60 76 -4 0 -33 -37 -65 -82z"/>
<path d="M10238 11454 c-19 -30 -33 -168 -33 -324 0 -163 23 -506 33 -496 9 9
42 403 42 501 0 145 -26 345 -42 319z"/>
<path d="M10091 11389 c-24 -35 -66 -90 -93 -121 -26 -31 -48 -59 -48 -62 0
-3 14 -6 32 -6 47 0 109 69 138 154 32 98 23 110 -29 35z"/>
<path d="M10345 11403 c16 -89 88 -194 142 -208 44 -11 45 8 1 60 -22 28 -61
80 -86 118 -25 37 -49 67 -55 67 -5 0 -6 -15 -2 -37z"/>
<path d="M2670 7859 c25 -4 63 -7 85 -7 39 1 39 1 -10 8 -27 5 -66 8 -85 8
-32 0 -31 -1 10 -9z"/>
<path d="M17838 7863 c12 -2 30 -2 40 0 9 3 -1 5 -23 4 -22 0 -30 -2 -17 -4z"/>
<path d="M17560 7839 c-91 -11 -325 -37 -520 -59 -786 -88 -999 -112 -1320
-151 -614 -74 -1090 -139 -1090 -148 0 -11 164 5 670 64 647 75 2526 313 2470
313 -25 0 -119 -9 -210 -19z"/>
<path d="M2810 7844 c8 -2 193 -27 410 -54 217 -28 555 -71 750 -96 324 -41
478 -60 1130 -139 488 -59 760 -85 760 -75 0 8 33 4 -550 80 -545 71 -845 106
-2065 245 -340 39 -487 52 -435 39z"/>
<path d="M6605 7404 c-99 -7 -274 -22 -390 -33 -510 -50 -550 -53 -700 -48
-114 4 -173 11 -245 30 -52 14 -96 24 -98 22 -1 -1 19 -11 45 -23 152 -65 398
-76 833 -38 523 46 706 56 983 57 428 1 653 -33 838 -126 169 -85 258 -200
267 -346 4 -68 1 -84 -22 -135 -34 -74 -76 -118 -146 -154 -159 -81 -350 -58
-466 54 -37 36 -56 64 -64 95 -28 106 35 207 140 226 48 8 116 -28 154 -82 35
-50 40 -116 12 -158 -23 -36 -14 -43 13 -10 60 78 19 215 -79 265 -126 64
-272 -24 -287 -172 -5 -46 -1 -65 20 -112 30 -65 35 -65 -82 7 -103 62 -270
143 -346 167 -97 31 -258 38 -344 15 -77 -20 -149 -55 -176 -85 -17 -19 -11
-18 37 10 79 44 147 60 255 60 148 0 292 -55 546 -207 206 -124 324 -166 462
-165 287 1 473 221 399 473 -67 231 -336 380 -754 418 -153 14 -581 12 -805
-5z"/>
<path d="M13095 7413 c-374 -31 -628 -146 -738 -335 -40 -67 -60 -159 -52
-235 27 -250 293 -387 590 -302 55 16 198 88 327 166 134 80 275 147 353 168
81 21 217 22 291 0 56 -16 82 -28 150 -71 l29 -18 -24 27 c-84 93 -306 133
-487 87 -107 -27 -295 -120 -462 -228 l-22 -14 25 53 c33 71 33 130 -1 198
-35 70 -86 103 -164 109 -121 9 -210 -75 -210 -197 0 -38 27 -102 46 -108 7
-2 3 14 -8 36 -34 70 -4 157 72 209 29 20 44 23 88 20 149 -12 209 -183 105
-299 -131 -145 -414 -156 -562 -23 -148 133 -124 376 49 513 280 221 745 257
1919 146 284 -27 546 -32 676 -14 90 12 192 42 220 64 18 13 16 13 -23 0 -138
-47 -400 -59 -668 -30 -399 42 -644 65 -782 75 -139 9 -639 11 -737 3z"/>
<path d="M7022 7284 c-68 -7 -248 -31 -400 -53 -418 -60 -505 -70 -654 -73
-77 -2 -133 -7 -128 -12 5 -4 109 -6 232 -3 185 4 286 12 588 50 581 74 785
81 998 37 218 -44 361 -176 363 -334 1 -57 2 -59 10 -27 7 22 7 50 -1 84 -37
175 -194 290 -455 332 -112 18 -383 18 -553 -1z"/>
<path d="M12940 7290 c-331 -45 -528 -228 -484 -449 4 -17 10 -31 14 -31 4 0
4 18 -1 40 -18 78 29 199 104 267 46 41 137 86 222 108 76 20 276 35 380 30
44 -3 121 -7 170 -10 90 -6 379 -38 676 -75 151 -20 439 -40 469 -34 8 1 51 3
95 4 109 3 81 7 -125 20 -96 6 -301 28 -455 50 -154 22 -354 49 -445 60 -183
24 -516 34 -620 20z"/>
<path d="M6874 7066 c-3 -8 -4 -23 -2 -33 5 -25 61 -25 66 0 7 37 -51 67 -64
33z"/>
<path d="M13557 7069 c-39 -22 -4 -79 35 -58 10 5 18 18 18 29 0 25 -30 41
-53 29z"/>
</g>
</svg>
